<?xml version="1.0" encoding="UTF-8" standalone="no"?>
<svg
   version="1.1"
   x="0"
   y="0"
   viewBox="0 0 70.7 37.5"
   style="enable-background:new 0 0 70.7 37.5"
   xml:space="preserve"
   id="svg13"
   sodipodi:docname="logo-header.svg"
   inkscape:version="1.3 (0e150ed6c4, 2023-07-21)"
   xmlns:inkscape="http://www.inkscape.org/namespaces/inkscape"
   xmlns:sodipodi="http://sodipodi.sourceforge.net/DTD/sodipodi-0.dtd"
   xmlns="http://www.w3.org/2000/svg"
   xmlns:svg="http://www.w3.org/2000/svg"><defs
   id="defs13"><radialGradient
   id="SVGID_1_"
   cx="0"
   cy="119.1001"
   r="819.20007"
   gradientTransform="matrix(0.1249,0,0,0.1249,66.9987,2.353)"
   gradientUnits="userSpaceOnUse">&#10;		<stop
   offset="0"
   style="stop-color:#FFCB05"
   id="stop1" />&#10;		<stop
   offset="0.2745"
   style="stop-color:#EA3F2E"
   id="stop2" />&#10;		<stop
   offset="0.3686"
   style="stop-color:#D2442F"
   id="stop3" />&#10;		<stop
   offset="0.5333"
   style="stop-color:#A85741"
   id="stop4" />&#10;		<stop
   offset="0.7529"
   style="stop-color:#A15742"
   id="stop5" />&#10;		<stop
   offset="0.9569"
   style="stop-color:#D2442F"
   id="stop6" />&#10;	</radialGradient><radialGradient
   id="SVGID_2_"
   cx="0"
   cy="119.1001"
   r="819.20001"
   gradientTransform="matrix(0.095,0,0,0.095,11.8302,57.1059)"
   gradientUnits="userSpaceOnUse">&#10;		<stop
   offset="0"
   style="stop-color:#B7CFEB"
   id="stop7" />&#10;		<stop
   offset="0.3294"
   style="stop-color:#007DC5"
   id="stop8" />&#10;		<stop
   offset="0.4745"
   style="stop-color:#5172A0"
   id="stop9" />&#10;		<stop
   offset="0.6275"
   style="stop-color:#556A90"
   id="stop10" />&#10;		<stop
   offset="0.7373"
   style="stop-color:#536993"
   id="stop11" />&#10;		<stop
   offset="0.9569"
   style="stop-color:#138ECD"
   id="stop12" />&#10;	</radialGradient><radialGradient
   id="SVGID_3_"
   cx="0"
   cy="119.1001"
   r="819.20001"
   gradientTransform="matrix(0.0772,0,0,0.0772,22.4311,96.3811)"
   gradientUnits="userSpaceOnUse">&#10;		<stop
   offset="0"
   style="stop-color:#B7CFEB"
   id="stop13" />&#10;		<stop
   offset="0.3177"
   style="stop-color:#007DC5"
   id="stop14" />&#10;		<stop
   offset="0.5686"
   style="stop-color:#5172A0"
   id="stop15" />&#10;		<stop
   offset="0.8157"
   style="stop-color:#536993"
   id="stop16" />&#10;	</radialGradient><filter
   style="color-interpolation-filters:sRGB;"
   inkscape:label="Lightness-Contrast"
   id="filter13"
   x="0"
   y="0"
   width="1"
   height="1"><feColorMatrix
     values="1.5 0 0 0 -0.25 0 1.5 0 0 -0.25 0 0 1.5 0 -0.25 0 0 0 1 0"
     id="feColorMatrix13" /></filter>&#10;	&#10;		<radialGradient
   id="radialGradient22"
   cx="0"
   cy="119.1001"
   r="819.20007"
   gradientTransform="matrix(0.1249,0,0,0.1249,66.9987,2.353)"
   gradientUnits="userSpaceOnUse">&#10;		<stop
   offset="0"
   style="stop-color:#FFCB05"
   id="stop17" />&#10;		<stop
   offset="0.2745"
   style="stop-color:#EA3F2E"
   id="stop18" />&#10;		<stop
   offset="0.3686"
   style="stop-color:#D2442F"
   id="stop19" />&#10;		<stop
   offset="0.5333"
   style="stop-color:#A85741"
   id="stop20" />&#10;		<stop
   offset="0.7529"
   style="stop-color:#A15742"
   id="stop21" />&#10;		<stop
   offset="0.9569"
   style="stop-color:#D2442F"
   id="stop22" />&#10;	</radialGradient>&#10;	&#10;	&#10;		<radialGradient
   id="radialGradient28"
   cx="0"
   cy="119.1001"
   r="819.20001"
   gradientTransform="matrix(0.095,0,0,0.095,11.8302,57.1059)"
   gradientUnits="userSpaceOnUse">&#10;		<stop
   offset="0"
   style="stop-color:#B7CFEB"
   id="stop23" />&#10;		<stop
   offset="0.3294"
   style="stop-color:#007DC5"
   id="stop24" />&#10;		<stop
   offset="0.4745"
   style="stop-color:#5172A0"
   id="stop25" />&#10;		<stop
   offset="0.6275"
   style="stop-color:#556A90"
   id="stop26" />&#10;		<stop
   offset="0.7373"
   style="stop-color:#536993"
   id="stop27" />&#10;		<stop
   offset="0.9569"
   style="stop-color:#138ECD"
   id="stop28" />&#10;	</radialGradient>&#10;	&#10;	&#10;		<radialGradient
   id="radialGradient32"
   cx="0"
   cy="119.1001"
   r="819.20001"
   gradientTransform="matrix(0.0772,0,0,0.0772,22.4311,96.3811)"
   gradientUnits="userSpaceOnUse">&#10;		<stop
   offset="0"
   style="stop-color:#B7CFEB"
   id="stop29" />&#10;		<stop
   offset="0.3177"
   style="stop-color:#007DC5"
   id="stop30" />&#10;		<stop
   offset="0.5686"
   style="stop-color:#5172A0"
   id="stop31" />&#10;		<stop
   offset="0.8157"
   style="stop-color:#536993"
   id="stop32" />&#10;	</radialGradient>&#10;	&#10;	&#10;	&#10;	&#10;	&#10;</defs><sodipodi:namedview
   id="namedview13"
   pagecolor="#ffffff"
   bordercolor="#000000"
   borderopacity="0.25"
   inkscape:showpageshadow="2"
   inkscape:pageopacity="0.0"
   inkscape:pagecheckerboard="0"
   inkscape:deskcolor="#d1d1d1"
   inkscape:zoom="18.37341"
   inkscape:cx="35.349998"
   inkscape:cy="18.777135"
   inkscape:window-width="1920"
   inkscape:window-height="1018"
   inkscape:window-x="-6"
   inkscape:window-y="-6"
   inkscape:window-maximized="1"
   inkscape:current-layer="svg13" />&#10;  <style
   id="style1">&#10;    .st0{fill:#fff}&#10;  </style>&#10;  &#10;  &#10;  &#10;  &#10;  &#10;  &#10;  &#10;  &#10;  &#10;  &#10;  &#10;  &#10;  &#10;<path
   fill="url(#SVGID_1_)"
   d="M 63.2,3.5 C 59.9,1.2 55.1,0 49,0 c 9.1,6.9 13.1,19.4 12.1,37.4 -1.1,18 -3.4,35.7 -7,52.9 -1.4,7.2 -0.3,13 3.2,17.7 4.2,5.5 11.7,8.8 22.5,10 C 73,115.7 68.5,113 66.3,109.9 64.8,107.8 64,104.9 64,101.2 64,95 64.3,88 65.2,80.5 66,73.5 67,66.6 68,60 69.2,53.4 70.2,47.2 71,41.4 71.8,35.6 72.2,30.5 72.2,26 72.2,21.4 71.5,17.1 70.1,13.1 68.8,9.1 66.5,5.9 63.2,3.5 Z"
   id="path6"
   style="fill:url(#SVGID_1_);filter:url(#filter13)"
   transform="matrix(0.2719702,0,0,0.2719702,0.26385984,3.7968866)" /><path
   fill="url(#SVGID_2_)"
   d="m 50.8,9.8 c 0.2,3.6 0.4,7.6 0.4,11.9 0,2.9 -0.1,6.7 -0.2,11.2 -0.1,4.6 -0.4,9.5 -0.7,14.7 -0.1,0.5 -0.1,1 -0.1,1.5 -0.7,-0.3 -1.5,-0.5 -2.2,-0.7 -2.7,-0.6 -5.2,-0.8 -7.6,-0.8 -5.9,0 -11.3,1 -16.3,3.3 C 19.3,53.1 15,56.3 11.4,60.5 7.8,64.6 5,69.3 3,74.8 1,80.1 0,86 0,92.2 c 0,6.2 0.9,11.2 2.8,15 1.9,3.8 4.3,6.6 7.3,8.2 3.1,1.7 6.3,2.6 9.6,2.6 3.4,0 6.7,-0.7 9.9,-1.9 3.1,-1.3 5.9,-3.1 8.5,-5.6 2.5,-2.4 4.7,-5.5 6.4,-9 l 0.6,0.2 c 0.2,2.6 0.8,5.3 1.9,7.9 1.3,2.7 3.3,4.8 6.1,6.6 1.9,1.1 5.2,2 9.9,2.5 5.8,0.7 11.3,0.5 16.8,-0.7 C 69,116.8 61.5,113.5 57.3,108 53.8,103.3 52.7,97.5 54.1,90.3 57.7,73.1 60,55.4 61.1,37.4 62.1,19.4 58.1,6.9 49,0 c 0.9,2.9 1.5,6.1 1.8,9.8 z M 27.9,56.6 c 1.2,-1 2.5,-1.8 3.8,-2.5 l 3.1,-1.3 c 0.3,-0.2 0.7,-0.3 1,-0.5 1.4,-0.5 2.8,-1 4.2,-1.4 1.9,-0.6 3.8,-0.8 5.8,-0.8 1.1,0 2.1,0.1 3.1,0.2 l 1.6,0.2 0.3,0.1 h -0.3 c 1.4,0.1 2.7,0.5 4,1.2 -1.7,0 -3,0.3 -4,0.6 -0.1,0.1 -0.2,0.2 -0.4,0.2 -1,11.4 -2.2,20.7 -3.6,28.1 -0.1,1 -0.1,2 -0.2,3 0,1 -0.2,2 -0.3,2.9 -0.2,1.8 -0.5,3.6 -0.9,5.3 -0.2,1.5 -0.6,3 -1.2,4.4 -0.4,1.4 -0.9,2.6 -1.5,3.8 -0.9,1.6 -1.9,3.2 -3,4.6 -1,1.4 -2.3,2.6 -3.5,3.6 -0.9,0.6 -1.8,1.2 -2.7,1.9 -1.3,1 -2.9,1.7 -4.6,2.2 -1.4,0.5 -2.8,0.7 -4.4,0.5 -1.6,-0.1 -3,-0.6 -4.3,-1.3 -1.6,-0.8 -3.1,-1.7 -4.3,-2.8 -0.9,-0.8 -1.7,-1.8 -2.4,-3 -0.9,-1.5 -1.6,-3.1 -2,-4.9 -0.2,-0.8 -0.3,-1.6 -0.4,-2.4 -0.2,-1.4 -0.3,-2.8 -0.2,-4.1 0,-1.9 0.2,-3.7 0.4,-5.6 0.3,-1.6 0.6,-3.3 0.9,-5 0.5,-1.6 0.9,-3.1 1.4,-4.7 0.4,-1.5 1,-2.9 1.5,-4.4 0.5,-1.3 1.1,-2.6 1.7,-4 0.6,-1.2 1.3,-2.4 1.9,-3.6 1,-1.8 2.2,-3.4 3.4,-4.8 0.8,-1 1.6,-1.9 2.6,-2.7 1.1,-1.1 2.2,-2.1 3.5,-3 z"
   id="path12"
   style="fill:url(#SVGID_2_);filter:url(#filter13)"
   transform="matrix(0.2719702,0,0,0.2719702,0.26385984,3.7968866)" /><path
   fill="url(#SVGID_3_)"
   d="m 31.7,54.1 c -1.3,0.7 -2.6,1.5 -3.8,2.5 -1.3,0.9 -2.4,1.9 -3.5,3 -1,0.8 -1.8,1.7 -2.6,2.7 -1.2,1.4 -2.4,3 -3.4,4.8 -0.6,1.2 -1.3,2.4 -1.9,3.6 -0.6,1.4 -1.2,2.7 -1.7,4 -0.5,1.5 -1.1,2.9 -1.5,4.4 -0.5,1.6 -0.9,3.1 -1.4,4.7 -0.3,1.7 -0.6,3.4 -0.9,5 -0.2,1.9 -0.4,3.7 -0.4,5.6 -0.1,1.3 0,2.7 0.2,4.1 0.1,0.8 0.2,1.6 0.4,2.4 0.4,1.8 1.1,3.4 2,4.9 0.7,1.2 1.5,2.2 2.4,3 1.2,1.1 2.7,2 4.3,2.8 1.3,0.7 2.7,1.2 4.3,1.3 1.6,0.2 3,0 4.4,-0.5 1.7,-0.5 3.3,-1.2 4.6,-2.2 0.9,-0.7 1.8,-1.3 2.7,-1.9 1.2,-1 2.5,-2.2 3.5,-3.6 1.1,-1.4 2.1,-3 3,-4.6 0.6,-1.2 1.1,-2.4 1.5,-3.8 0.6,-1.4 1,-2.9 1.2,-4.4 0.4,-1.7 0.7,-3.5 0.9,-5.3 0.1,-0.9 0.3,-1.9 0.3,-2.9 0.1,-1 0.1,-2 0.2,-3 -3.6,18.3 -8.7,27 -15.3,26.1 -2.1,-0.6 -3.6,-2 -4.6,-4.3 -1.5,-3.9 -1.5,-10.2 0,-18.9 0.3,-1.5 0.6,-3 1,-4.8 3.6,-12.8 11.1,-21.6 22.5,-26.2 0.2,0 0.3,-0.1 0.4,-0.2 1,-0.3 2.3,-0.6 4,-0.6 -1.3,-0.7 -2.6,-1.1 -4,-1.2 v -0.1 l -1.6,-0.2 c -1,-0.1 -2,-0.2 -3.1,-0.2 -2,0 -3.9,0.2 -5.8,0.8 -1.4,0.4 -2.8,0.9 -4.2,1.4 -0.3,0.2 -0.7,0.3 -1,0.5 z"
   id="path16"
   style="fill:url(#SVGID_3_);filter:url(#filter13)"
   transform="matrix(0.2719702,0,0,0.2719702,0.26385984,3.7968866)" /><path
   fill="#007dc5"
   d="m 50.5,50.5 v 0.1 h 0.3 z"
   id="path17"
   transform="matrix(0.2719702,0,0,0.2719702,0.26385984,3.7968866)"
   style="filter:url(#filter13)" /><path
   fill="#282828"
   d="m 204.1,64.9 c 1.8,0 3.3,-0.6 4.6,-1.8 1.2,-1.3 1.9,-2.7 1.9,-4.5 0,-1.7 -0.7,-3.1 -1.9,-4.4 -1.3,-1.3 -2.8,-1.9 -4.6,-1.9 -1.8,0 -3.3,0.6 -4.6,1.9 -1.2,1.3 -1.8,2.7 -1.8,4.4 0,1.8 0.6,3.2 1.8,4.5 1.3,1.2 2.8,1.8 4.6,1.8 z"
   id="path18"
   transform="matrix(0.2719702,0,0,0.2719702,0.26385984,3.7968866)"
   style="filter:url(#filter13);fill:#cccccc" /><path
   fill="#282828"
   d="m 190.3,72.3 0.6,-3.2 h -4.8 l 2.7,-12.5 -12,1.6 -2.5,10.9 h -2.6 l -0.7,3.2 h 2.7 l -4.9,22.2 c -0.7,0.7 -1.6,1.3 -2.6,2 -1.1,0.7 -2.1,1.3 -3.3,2 0.2,-0.5 0.3,-1 0.3,-1.4 0.1,-0.4 0.1,-1 0.1,-1.6 0,-0.9 0,-1.8 -0.1,-2.7 0,-0.8 -0.1,-2.3 -0.3,-4.6 -0.3,-3.9 -0.6,-7.4 -0.8,-10.6 -0.3,-3.3 -0.4,-6.9 -0.6,-10.9 l -12.1,1.5 c -1.6,5.1 -3.2,9.5 -4.8,13.1 -1.5,3.7 -3.3,7.2 -5.2,10.4 -1.2,0.5 -2.2,1.5 -3.1,2.8 -0.7,1.4 -1.1,2.9 -1.1,4.5 0,2.9 1,5.3 3.1,7.2 2.2,2 5,2.9 8.7,2.9 2.5,0 4.9,-0.4 7.2,-1.2 2.2,-0.8 4.1,-2 5.6,-3.6 2.5,-1.4 4.8,-3 6.9,-4.5 0.5,-0.5 1,-0.8 1.5,-1.3 0,0.4 0,0.8 0,1.2 0,3 0.7,5.3 2.2,7 1.6,1.6 3.7,2.4 6.4,2.4 3.9,0 7.2,-1.3 10.1,-3.7 1.2,-1 2.2,-2.1 3.2,-3.4 0.2,1.9 1,3.4 2.1,4.7 1.5,1.6 3.6,2.4 6.4,2.4 3.7,0 7.1,-1.3 10.1,-3.7 1.1,-1 2.2,-2.2 3.2,-3.6 0.4,1.6 1.2,2.9 2.2,4 1.8,2.2 4.5,3.3 7.8,3.3 2.4,0 4.5,-0.6 6.6,-1.8 2.1,-1.2 3.9,-3 5.6,-5.5 0.2,2.4 1,4.1 2.3,5.4 1.4,1.2 3.3,1.9 5.7,1.9 3.6,0 6.8,-1.2 9.6,-3.7 2.7,-2.4 4.9,-6.1 6.7,-10.9 h -3.5 c -0.6,2.4 -1.6,4.2 -2.7,5.5 -1.1,1.3 -2.4,2 -3.9,2 -1.1,0 -1.9,-0.3 -2.5,-0.9 -0.5,-0.6 -0.7,-1.4 -0.7,-2.6 0,-0.4 0,-0.8 0,-1.2 0.1,-0.3 0.2,-0.8 0.3,-1.3 l 5.9,-26.9 h -11.8 l -0.8,4.2 v -0.5 c 0,-1.2 -0.6,-2.2 -1.8,-3 -1.1,-0.7 -2.7,-1.1 -4.8,-1.1 -3.2,0 -6.1,0.9 -8.8,2.5 -2.6,1.7 -5,4.1 -7,7.2 -1.6,2.7 -2.9,5.6 -3.8,8.8 -0.9,3.2 -1.3,6.3 -1.3,9.2 0,0.2 0,0.4 0,0.6 -0.6,1 -1.3,1.8 -2,2.5 -1.4,1.3 -2.8,2 -4.3,2 -1.2,0 -2.1,-0.3 -2.6,-0.7 -0.5,-0.5 -0.7,-1.2 -0.7,-2.3 0,-0.4 0,-0.8 0.1,-1.2 0,-0.3 0.1,-0.8 0.2,-1.3 l 5.9,-26.9 H 196 l -5.5,25.4 c -0.7,2 -1.7,3.7 -3,5 -1.3,1.3 -2.7,2 -4.3,2 -1.2,0 -2,-0.3 -2.5,-0.7 -0.5,-0.5 -0.8,-1.2 -0.8,-2.3 0,-0.4 0,-0.8 0,-1.2 0.1,-0.3 0.2,-0.8 0.3,-1.3 l 5.2,-23.7 z m 44.3,1.3 c 1,0 1.8,0.4 2.4,1 0.6,0.6 0.9,1.3 0.9,2.1 L 234,94.5 c -0.4,2 -1.3,3.7 -2.7,5 -1.3,1.3 -2.6,2 -4,2 -1.5,0 -2.6,-0.5 -3.2,-1.5 -0.7,-1.1 -0.9,-2.7 -0.9,-4.7 0,-4.8 1.1,-9.6 3.5,-14.4 2.2,-4.8 4.9,-7.3 7.9,-7.3 z m -84.7,3.2 c 0.2,2.2 0.4,4.2 0.5,6.1 0.2,1.9 0.4,4.1 0.7,6.6 0.2,1.7 0.2,3 0.3,3.8 0,0.7 0.1,1.5 0.1,2.2 0,2.4 -0.7,4.2 -1.9,5.5 -1.3,1.2 -2.9,1.9 -5.2,1.9 -1.7,0 -3,-0.4 -3.7,-1.3 -0.9,-0.9 -1.3,-2.3 -1.3,-4.3 0.2,0.4 0.5,0.6 0.9,0.8 0.4,0.2 0.8,0.3 1.4,0.3 0.9,0 1.7,-0.4 2.5,-1.2 0.6,-0.8 1,-1.7 1,-2.7 0,-0.7 -0.1,-1.2 -0.4,-1.7 -0.4,-0.4 -0.9,-0.8 -1.5,-1.1 1.8,-3 3.1,-5.7 4.1,-8.1 1,-2.4 1.9,-4.6 2.5,-6.8 z"
   id="path19"
   transform="matrix(0.2719702,0,0,0.2719702,0.26385984,3.7968866)"
   style="filter:url(#filter13);fill:#cccccc" /><path
   fill="#282828"
   d="m 100.5,70.3 c -1.5,-1.2 -3.8,-1.8 -6.7,-1.8 -3.5,0 -6.6,0.7 -9.5,2.3 -2.8,1.7 -5.1,4 -7.1,7.2 -1.7,2.6 -3,5.6 -3.9,9 -1,3.3 -1.5,6.5 -1.5,9.6 0,4.1 1,7.2 3.2,9.3 2.2,2.1 5.3,3.2 9.5,3.2 4.3,0 8.4,-1.2 12.1,-3.6 2.4,-1.5 4.7,-3.6 6.8,-6.2 0,0.2 0,0.4 0,0.5 0,3 0.9,5.3 2.6,6.9 1.7,1.6 4.2,2.4 7.3,2.4 3.8,0 7.1,-1.1 10.2,-3.3 3,-2.1 5.6,-5.3 7.8,-9.4 1.6,-3.2 2.9,-6.7 3.8,-10.7 1,-4 1.5,-7.7 1.5,-11.2 0,-2.2 -0.5,-3.9 -1.3,-5.1 -0.9,-1.2 -2.2,-1.8 -3.9,-1.8 -1.6,0 -2.8,0.4 -3.7,1.1 -0.9,0.8 -1.4,1.8 -1.4,3.1 0,1.1 0.4,2 0.9,2.8 0.6,0.9 1.2,1.2 2.1,1.2 0.5,0 1,0 1.6,-0.2 0.5,-0.1 0.9,-0.3 1,-0.5 0,2.1 -0.3,4.5 -1,7.3 -0.6,2.8 -1.5,5.5 -2.6,8 -1.5,3.6 -3,6.3 -4.9,8.2 -1.8,1.9 -3.6,2.9 -5.6,2.9 -0.9,0 -1.6,-0.3 -2,-0.7 -0.5,-0.5 -0.7,-1.1 -0.7,-2 0,-0.3 0,-0.6 0.1,-1.2 0.1,-0.4 0.2,-1 0.3,-1.6 l 5.8,-26.9 h -11.7 l -5.4,25.4 h -0.1 c -2.8,3 -5.3,5.2 -7.4,6.3 -2.2,1.2 -4.4,1.7 -7,1.7 -2.2,0 -3.7,-0.5 -4.6,-1.5 -0.8,-1 -1.3,-2.8 -1.3,-5.2 0,-0.3 0,-0.6 0.1,-1.1 0.1,-0.4 0.1,-1.1 0.1,-2 5.1,-0.2 9.5,-2 13.2,-5.2 3.6,-3.3 5.5,-7.1 5.5,-11.5 0,-2.5 -0.7,-4.4 -2.2,-5.7 z m -6.1,2.3 c 0.7,0 1.2,0.3 1.6,0.9 0.3,0.5 0.5,1.2 0.5,2.3 0,3.3 -1.2,6.3 -3.6,8.8 -2.4,2.7 -5.1,4.1 -8.2,4.3 0.9,-4.4 2.3,-8.3 4.1,-11.5 1.9,-3.2 3.7,-4.8 5.6,-4.8 z"
   id="path20"
   transform="matrix(0.2719702,0,0,0.2719702,0.26385984,3.7968866)"
   style="filter:url(#filter13);fill:#cccccc" /></svg>
